<svg width="120" height="165" viewBox="0 0 120 165" fill="none" xmlns="http://www.w3.org/2000/svg">
<rect width="15" height="15" transform="matrix(-1 0 0 1 45 0)" fill="white"/>
<rect width="15" height="15" transform="matrix(-1 0 0 1 60 15)" fill="white"/>
<rect width="15" height="15" transform="matrix(-1 0 0 1 75 30)" fill="white"/>
<rect width="15" height="15" transform="matrix(-1 0 0 1 90 45)" fill="white"/>
<rect width="15" height="15" transform="matrix(-1 0 0 1 105 60)" fill="white"/>
<rect width="15" height="15" transform="matrix(-1 0 0 1 120 75)" fill="white"/>
<rect width="15" height="15" transform="matrix(-1 0 0 1 105 90)" fill="white"/>
<rect width="15" height="15" transform="matrix(-1 0 0 1 90 105)" fill="white"/>
<rect width="15" height="15" transform="matrix(-1 0 0 1 75 120)" fill="white"/>
<rect width="15" height="15" transform="matrix(-1 0 0 1 60 135)" fill="white"/>
<rect width="15" height="15" transform="matrix(-1 0 0 1 45 150)" fill="white"/>
<rect width="15" height="15" transform="matrix(-1 0 0 1 30 150)" fill="white"/>
<rect width="15" height="15" transform="matrix(-1 0 0 1 15 150)" fill="white"/>
<rect width="15" height="15" transform="matrix(-1 0 0 1 15 135)" fill="white"/>
<rect width="15" height="15" transform="matrix(-1 0 0 1 30 120)" fill="white"/>
<rect width="15" height="15" transform="matrix(-1 0 0 1 45 105)" fill="white"/>
<rect width="15" height="15" transform="matrix(-1 0 0 1 60 90)" fill="white"/>
<rect width="15" height="15" transform="matrix(-1 0 0 1 75 75)" fill="white"/>
<rect width="15" height="15" transform="matrix(-1 0 0 1 60 60)" fill="white"/>
<rect width="15" height="15" transform="matrix(-1 0 0 1 45 45)" fill="white"/>
<rect width="15" height="15" transform="matrix(-1 0 0 1 30 30)" fill="white"/>
<rect width="15" height="15" transform="matrix(-1 0 0 1 30 0)" fill="white"/>
<rect width="15" height="15" transform="matrix(-1 0 0 1 15 0)" fill="white"/>
<rect width="15" height="15" transform="matrix(-1 0 0 1 15 15)" fill="white"/>
</svg>
