<svg width="120" height="165" viewBox="0 0 120 165" fill="none" xmlns="http://www.w3.org/2000/svg">
<rect x="75" width="15" height="15" fill="white"/>
<rect x="60" y="15" width="15" height="15" fill="white"/>
<rect x="45" y="30" width="15" height="15" fill="white"/>
<rect x="30" y="45" width="15" height="15" fill="white"/>
<rect x="15" y="60" width="15" height="15" fill="white"/>
<rect y="75" width="15" height="15" fill="white"/>
<rect x="15" y="90" width="15" height="15" fill="white"/>
<rect x="30" y="105" width="15" height="15" fill="white"/>
<rect x="45" y="120" width="15" height="15" fill="white"/>
<rect x="60" y="135" width="15" height="15" fill="white"/>
<rect x="75" y="150" width="15" height="15" fill="white"/>
<rect x="90" y="150" width="15" height="15" fill="white"/>
<rect x="105" y="150" width="15" height="15" fill="white"/>
<rect x="105" y="135" width="15" height="15" fill="white"/>
<rect x="90" y="120" width="15" height="15" fill="white"/>
<rect x="75" y="105" width="15" height="15" fill="white"/>
<rect x="60" y="90" width="15" height="15" fill="white"/>
<rect x="45" y="75" width="15" height="15" fill="white"/>
<rect x="60" y="60" width="15" height="15" fill="white"/>
<rect x="75" y="45" width="15" height="15" fill="white"/>
<rect x="90" y="30" width="15" height="15" fill="white"/>
<rect x="90" width="15" height="15" fill="white"/>
<rect x="105" width="15" height="15" fill="white"/>
<rect x="105" y="15" width="15" height="15" fill="white"/>
</svg>
