<svg width="28" height="36" viewBox="0 0 210 270" fill="none" shape-rendering="crispEdges" xmlns="http://www.w3.org/2000/svg">
<rect x="75" width="15" height="15" fill="#EF5589"/>
<rect x="60" y="15" width="15" height="15" fill="#EF5589"/>
<rect x="60" y="75" width="15" height="15" fill="#EF5589"/>
<rect x="60" y="45" width="15" height="15" fill="#EF5589"/>
<rect x="60" y="105" width="15" height="15" fill="#EF5589"/>
<rect x="60" y="30" width="15" height="15" fill="#EF5589"/>
<rect x="60" y="90" width="15" height="15" fill="#EF5589"/>
<rect x="60" y="60" width="15" height="15" fill="#EF5589"/>
<rect x="60" y="120" width="15" height="15" fill="#EF5589"/>
<rect x="60" y="135" width="15" height="15" fill="#EF5589"/>
<rect x="45" y="120" width="15" height="15" fill="#EF5589"/>
<rect x="30" y="105" width="15" height="15" fill="#EF5589"/>
<rect x="15" y="105" width="15" height="15" fill="#EF5589"/>
<rect y="105" width="15" height="15" fill="#EF5589"/>
<rect y="120" width="15" height="15" fill="#EF5589"/>
<rect y="135" width="15" height="15" fill="#EF5589"/>
<rect x="15" y="150" width="15" height="15" fill="#EF5589"/>
<rect x="30" y="165" width="15" height="15" fill="#EF5589"/>
<rect x="30" y="180" width="15" height="15" fill="#EF5589"/>
<rect x="45" y="195" width="15" height="15" fill="#EF5589"/>
<rect x="60" y="225" width="15" height="15" fill="#EF5589"/>
<rect x="45" y="210" width="15" height="15" fill="#EF5589"/>
<rect x="60" y="240" width="15" height="15" fill="#EF5589"/>
<rect x="60" y="255" width="15" height="15" fill="#EF5589"/>
<rect x="75" y="255" width="15" height="15" fill="#EF5589"/>
<rect x="90" y="255" width="15" height="15" fill="#EF5589"/>
<rect x="105" y="255" width="15" height="15" fill="#EF5589"/>
<rect x="120" y="255" width="15" height="15" fill="#EF5589"/>
<rect x="135" y="255" width="15" height="15" fill="#EF5589"/>
<rect x="150" y="255" width="15" height="15" fill="#EF5589"/>
<rect x="165" y="255" width="15" height="15" fill="#EF5589"/>
<rect x="165" y="240" width="15" height="15" fill="#EF5589"/>
<rect x="165" y="225" width="15" height="15" fill="#EF5589"/>
<rect x="180" y="210" width="15" height="15" fill="#EF5589"/>
<rect x="180" y="195" width="15" height="15" fill="#EF5589"/>
<rect x="90" width="15" height="15" fill="#EF5589"/>
<rect x="105" y="15" width="15" height="15" fill="#EF5589"/>
<rect x="105" y="30" width="15" height="15" fill="#EF5589"/>
<rect x="105" y="45" width="15" height="15" fill="#EF5589"/>
<rect x="105" y="60" width="15" height="15" fill="#EF5589"/>
<rect x="120" y="60" width="15" height="15" fill="#EF5589"/>
<rect x="135" y="60" width="15" height="15" fill="#EF5589"/>
<rect x="150" y="75" width="15" height="15" fill="#EF5589"/>
<rect x="135" y="75" width="15" height="15" fill="#EF5589"/>
<rect x="135" y="90" width="15" height="15" fill="#EF5589"/>
<rect x="135" y="105" width="15" height="15" fill="#EF5589"/>
<rect x="165" y="90" width="15" height="15" fill="#EF5589"/>
<rect x="165" y="105" width="15" height="15" fill="#EF5589"/>
<rect x="165" y="120" width="15" height="15" fill="#EF5589"/>
<rect x="180" y="90" width="15" height="15" fill="#EF5589"/>
<rect x="195" y="105" width="15" height="15" fill="#EF5589"/>
<rect x="195" y="120" width="15" height="15" fill="#EF5589"/>
<rect x="195" y="135" width="15" height="15" fill="#EF5589"/>
<rect x="195" y="150" width="15" height="15" fill="#EF5589"/>
<rect x="195" y="165" width="15" height="15" fill="#EF5589"/>
<rect x="195" y="180" width="15" height="15" fill="#EF5589"/>
<rect x="105" y="75" width="15" height="15" fill="#EF5589"/>
<rect x="105" y="90" width="15" height="15" fill="#EF5589"/>
<rect x="105" y="105" width="15" height="15" fill="#EF5589"/>
</svg>
