<svg width="20" height="36" viewBox="0 0 150 270" fill="none" shape-rendering="crispEdges" xmlns="http://www.w3.org/2000/svg">
<rect width="15" height="15" fill="#EF5589"/>
<rect y="15" width="15" height="15" fill="#EF5589"/>
<rect x="15" y="15" width="15" height="15" fill="#EF5589"/>
<rect x="30" y="30" width="15" height="15" fill="#EF5589"/>
<rect x="45" y="45" width="15" height="15" fill="#EF5589"/>
<rect x="60" y="60" width="15" height="15" fill="#EF5589"/>
<rect x="75" y="75" width="15" height="15" fill="#EF5589"/>
<rect x="90" y="90" width="15" height="15" fill="#EF5589"/>
<rect x="105" y="105" width="15" height="15" fill="#EF5589"/>
<rect x="120" y="120" width="15" height="15" fill="#EF5589"/>
<rect x="135" y="135" width="15" height="15" fill="#EF5589"/>
<rect x="135" y="150" width="15" height="15" fill="#EF5589"/>
<rect x="120" y="150" width="15" height="15" fill="#EF5589"/>
<rect x="105" y="150" width="15" height="15" fill="#EF5589"/>
<rect x="90" y="150" width="15" height="15" fill="#EF5589"/>
<rect x="90" y="165" width="15" height="15" fill="#EF5589"/>
<rect x="90" y="180" width="15" height="15" fill="#EF5589"/>
<rect x="105" y="195" width="15" height="15" fill="#EF5589"/>
<rect x="105" y="210" width="15" height="15" fill="#EF5589"/>
<rect x="120" y="225" width="15" height="15" fill="#EF5589"/>
<rect x="120" y="240" width="15" height="15" fill="#EF5589"/>
<rect x="105" y="255" width="15" height="15" fill="#EF5589"/>
<rect x="90" y="255" width="15" height="15" fill="#EF5589"/>
<rect x="75" y="240" width="15" height="15" fill="#EF5589"/>
<rect x="75" y="225" width="15" height="15" fill="#EF5589"/>
<rect x="75" y="210" width="15" height="15" fill="#EF5589"/>
<rect x="60" y="195" width="15" height="15" fill="#EF5589"/>
<rect x="60" y="180" width="15" height="15" fill="#EF5589"/>
<rect x="45" y="165" width="15" height="15" fill="#EF5589"/>
<rect x="30" y="180" width="15" height="15" fill="#EF5589"/>
<rect x="15" y="195" width="15" height="15" fill="#EF5589"/>
<rect y="210" width="15" height="15" fill="#EF5589"/>
<rect y="195" width="15" height="15" fill="#EF5589"/>
<rect y="30" width="15" height="165" fill="#EF5589"/>
</svg>
