<svg width="80" height="80" viewBox="0 0 80 80" fill="none" xmlns="http://www.w3.org/2000/svg">
<path d="M39.9946 15.402C48.0097 15.402 48.9589 15.4371 52.111 15.5778C55.0405 15.7067 56.6225 16.1988 57.6771 16.6089C59.0715 17.148 60.0793 17.8042 61.1222 18.8471C62.1768 19.9017 62.8213 20.8977 63.3603 22.2922C63.7704 23.3468 64.2626 24.9404 64.3915 27.8582C64.5321 31.0221 64.5672 31.9712 64.5672 39.9746C64.5672 47.9897 64.5321 48.9389 64.3915 52.091C64.2626 55.0205 63.7704 56.6024 63.3603 57.6571C62.8213 59.0515 62.1651 60.0592 61.1222 61.1021C60.0675 62.1568 59.0715 62.8013 57.6771 63.3403C56.6225 63.7504 55.0288 64.2426 52.111 64.3715C48.9472 64.5121 47.998 64.5472 39.9946 64.5472C31.9795 64.5472 31.0304 64.5121 27.8782 64.3715C24.9487 64.2426 23.3668 63.7504 22.3122 63.3403C20.9177 62.8013 19.91 62.145 18.8671 61.1021C17.8125 60.0475 17.168 59.0515 16.629 57.6571C16.2188 56.6024 15.7267 55.0088 15.5978 52.091C15.4572 48.9272 15.422 47.978 15.422 39.9746C15.422 31.9595 15.4572 31.0103 15.5978 27.8582C15.7267 24.9287 16.2188 23.3468 16.629 22.2922C17.168 20.8977 17.8242 19.89 18.8671 18.8471C19.9217 17.7925 20.9177 17.148 22.3122 16.6089C23.3668 16.1988 24.9605 15.7067 27.8782 15.5778C31.0304 15.4371 31.9795 15.402 39.9946 15.402ZM39.9946 10C31.8506 10 30.8312 10.0352 27.6322 10.1758C24.4449 10.3164 22.2536 10.832 20.3553 11.5702C18.3749 12.3436 16.6993 13.3631 15.0353 15.0387C13.3596 16.7027 12.3402 18.3784 11.5668 20.347C10.8286 22.257 10.313 24.4366 10.1724 27.6239C10.0317 30.8346 9.99658 31.854 9.99658 39.998C9.99658 48.142 10.0317 49.1615 10.1724 52.3605C10.313 55.5478 10.8286 57.7391 11.5668 59.6374C12.3402 61.6177 13.3596 63.2934 15.0353 64.9574C16.6993 66.6213 18.3749 67.6525 20.3436 68.4142C22.2536 69.1524 24.4331 69.668 27.6204 69.8086C30.8194 69.9492 31.8389 69.9844 39.9829 69.9844C48.1269 69.9844 49.1464 69.9492 52.3454 69.8086C55.5327 69.668 57.7239 69.1524 59.6223 68.4142C61.5909 67.6525 63.2666 66.6213 64.9305 64.9574C66.5945 63.2934 67.6256 61.6177 68.3873 59.6491C69.1255 57.7391 69.6411 55.5595 69.7818 52.3722C69.9224 49.1732 69.9575 48.1538 69.9575 40.0098C69.9575 31.8658 69.9224 30.8463 69.7818 27.6473C69.6411 24.46 69.1255 22.2687 68.3873 20.3704C67.6491 18.3784 66.6296 16.7027 64.9539 15.0387C63.29 13.3748 61.6143 12.3436 59.6457 11.5819C57.7357 10.8437 55.5561 10.3281 52.3688 10.1875C49.1581 10.0352 48.1386 10 39.9946 10Z" fill="#EF5589"/>
<path d="M39.9941 24.5889C31.4869 24.5889 24.585 31.4908 24.585 39.9981C24.585 48.5053 31.4869 55.4072 39.9941 55.4072C48.5014 55.4072 55.4033 48.5053 55.4033 39.9981C55.4033 31.4908 48.5014 24.5889 39.9941 24.5889ZM39.9941 49.9935C34.4749 49.9935 29.9987 45.5172 29.9987 39.9981C29.9987 34.4789 34.4749 30.0026 39.9941 30.0026C45.5133 30.0026 49.9896 34.4789 49.9896 39.9981C49.9896 45.5172 45.5133 49.9935 39.9941 49.9935Z" fill="#EF5589"/>
<path d="M59.6104 23.9794C59.6104 25.9715 57.9933 27.5768 56.0129 27.5768C54.0209 27.5768 52.4155 25.9598 52.4155 23.9794C52.4155 21.9874 54.0326 20.382 56.0129 20.382C57.9933 20.382 59.6104 21.9991 59.6104 23.9794Z" fill="#EF5589"/>
</svg>
