<svg width="148" height="81" viewBox="0 0 148 81" fill="none" xmlns="http://www.w3.org/2000/svg">
<g clip-path="url(#clip0_1787_933)">
<path d="M110.299 78.2822L110.073 78.0509C109.287 78.2033 108.487 78.2822 107.675 78.2822H99.7197C99.4079 78.2822 99.0988 78.2713 98.7896 78.2495V78.2822H84.2497C82.2031 78.2822 80.2123 77.7842 78.4988 76.859C77.2969 77.7679 75.8152 78.2822 74.2615 78.2822H65.3686C64.2147 78.2822 63.1088 78.0101 62.1201 77.4958C61.0168 78.0101 59.7909 78.2822 58.5251 78.2822H44.6994C41.9039 78.2822 39.4841 76.976 38.0637 74.9514H31.1375C29.6984 76.9597 27.2787 78.2822 24.5444 78.2822H10.7187C6.20434 78.2822 2.66797 74.9296 2.66797 70.6492V44.1607C2.66797 42.8899 3.00908 41.6545 3.63801 40.5578C3.00642 39.4258 2.66797 38.1332 2.66797 36.7944V10.306C2.66797 6.12618 6.02046 2.72465 10.1431 2.72465H36.3794C39.3562 2.72465 42.221 3.64714 44.4462 5.31797C46.0265 6.50443 47.2124 8.01743 47.924 9.69915C49.3683 9.09776 50.97 8.77665 52.6329 8.77665H69.9257C71.0823 8.77665 72.2229 8.93448 73.3022 9.24198C73.6406 5.53295 76.6147 2.72192 80.3483 2.72192H89.2411C92.8175 2.72192 95.6956 5.29893 96.2313 8.77665H102.137C104.282 8.77665 106.366 9.32362 108.136 10.3359C109.359 9.33994 110.902 8.77665 112.562 8.77665H121.455C122.902 8.77665 124.266 9.20933 125.407 9.98488C126.548 9.20933 127.912 8.77665 129.359 8.77665H138.252C142.22 8.77665 145.33 11.9523 145.33 16.0042V68.5266C145.33 73.9935 140.507 78.2768 134.348 78.2768H110.294L110.299 78.2822Z" fill="#DA659D"/>
<path d="M89.2435 5.44517C91.7192 5.44517 93.6566 7.4235 93.6566 9.95152V11.5135C93.8325 11.5053 94.0084 11.4999 94.1843 11.4999H102.139C104.191 11.4999 106.16 12.1285 107.679 13.266C108.005 13.5109 108.303 13.7748 108.578 14.0551C109.278 12.5312 110.781 11.4999 112.567 11.4999H121.46C123.213 11.4999 124.695 12.4931 125.412 13.9681C126.129 12.4904 127.613 11.4999 129.364 11.4999H138.257C140.733 11.4999 142.67 13.4782 142.67 16.0063V68.5286C142.67 72.4717 139.017 75.5576 134.353 75.5576H111.402L110.88 75.0242C109.867 75.3725 108.78 75.5576 107.674 75.5576H99.7193C98.4615 75.5576 97.2356 75.3181 96.1243 74.8745V75.5576H84.2494C82.1974 75.5576 80.228 74.929 78.709 73.7915C78.4958 73.6337 78.2959 73.4649 78.1067 73.2881C77.3552 74.6514 75.9321 75.5576 74.2612 75.5576H65.3683C64.1264 75.5576 63.0178 75.0569 62.2236 74.2405C61.2643 75.0596 59.9718 75.5576 58.5247 75.5576H44.699C41.7143 75.5576 39.3771 73.3996 39.3771 70.6458V68.5912L38.106 70.7655L37.2532 72.2268H31.9846L31.1318 70.7655L29.8606 68.5912V70.6458C29.8606 73.3534 27.4728 75.5576 24.5388 75.5576H10.7131C7.69368 75.5576 5.32721 73.3996 5.32721 70.6458V44.1573C5.32721 42.7423 6.00677 41.4688 7.08074 40.5789C6.00944 39.6782 5.32721 38.3149 5.32721 36.791V10.3053C5.32721 7.62487 7.48581 5.44517 10.1374 5.44517H36.3737C38.7855 5.44517 41.0907 6.17718 42.8602 7.51058C44.8722 9.02086 46.0235 11.2006 46.0235 13.4837V14.2511C47.5212 12.5693 49.8983 11.4999 52.6272 11.4999H69.92C71.972 11.4999 73.9414 12.1285 75.4604 13.266C75.6256 13.3884 75.7802 13.519 75.9321 13.6524V9.95152C75.9321 7.4235 77.8722 5.44517 80.3452 5.44517H89.2381M89.2435 0.00272123H80.3506C77.7309 0.00272123 75.2792 1.03134 73.4457 2.90355C72.5316 3.83693 71.8201 4.93086 71.3404 6.12548C70.8714 6.08194 70.3997 6.06017 69.9253 6.06017H52.6325C51.4546 6.06017 50.3007 6.19351 49.1948 6.45203C48.358 5.20571 47.292 4.08184 46.0235 3.12941C43.3426 1.1157 39.9181 0.00544245 36.3764 0.00544245H10.1401C4.54905 0.00272123 0 4.62336 0 10.3053V36.7937C0 38.0944 0.23718 39.3598 0.684889 40.5381C0.23718 41.6837 0 42.9083 0 44.1601V70.6485C0 73.5085 1.21788 76.2596 3.34183 78.1972C5.32721 80.0068 7.94685 81.0027 10.7184 81.0027H24.5441C27.6301 81.0027 30.4149 79.7183 32.363 77.672H36.8401C37.0027 77.8461 37.1732 78.0121 37.3491 78.1754C39.3238 79.9986 41.9355 81.0027 44.7017 81.0027H58.5274C59.7479 81.0027 60.9445 80.8068 62.0717 80.4286C63.1137 80.8041 64.225 81.0027 65.3709 81.0027H74.2638C75.8255 81.0027 77.3338 80.6245 78.677 79.9306C80.4145 80.6326 82.3173 81.0027 84.252 81.0027H107.677C108.165 81.0027 108.647 80.981 109.129 80.9347L109.196 81.0027H134.353C142.007 81.0027 148 75.5249 148 68.5314V16.0063C148 13.3313 146.993 10.8278 145.159 8.95555C143.328 7.08607 140.877 6.05473 138.254 6.05473H129.361C127.965 6.05473 126.627 6.34862 125.409 6.89287C124.191 6.34862 122.851 6.05473 121.457 6.05473H112.564C110.901 6.05473 109.324 6.46563 107.941 7.21941C106.142 6.45747 104.159 6.05473 102.139 6.05473H98.2243C97.7446 4.88732 97.0437 3.81788 96.1456 2.90083C94.3148 1.03134 91.8631 0 89.2408 0L89.2435 0.00272123Z" fill="#DA659D"/>
<path d="M36.3735 5.44238C36.6881 5.44238 37.0011 5.45586 37.311 5.48047C38.8456 5.60228 40.3116 6.02323 41.5952 6.70605C41.7136 6.76906 41.8306 6.83392 41.9458 6.90137C42.1683 7.03162 42.3847 7.16986 42.5942 7.31641C42.6838 7.37907 42.7728 7.44223 42.8599 7.50781C43.059 7.65731 43.2482 7.81547 43.4302 7.97754C44.2828 8.73659 44.946 9.62543 45.3872 10.5918C45.4465 10.7217 45.502 10.8529 45.5532 10.9854C45.6047 11.1182 45.6516 11.2525 45.6948 11.3877C45.7812 11.6581 45.8511 11.9329 45.9038 12.2109C45.9829 12.6283 46.0239 13.0531 46.0239 13.4814V14.249C47.5216 12.5673 49.8986 11.4981 52.6274 11.498H69.9204C70.4333 11.498 70.9411 11.5366 71.438 11.6133C71.5823 11.6356 71.7254 11.6619 71.8677 11.6904C73.1957 11.9567 74.4314 12.4932 75.4604 13.2637C75.6257 13.3861 75.7802 13.5171 75.9321 13.6504V9.94922C75.9321 7.42134 77.8724 5.44261 80.3452 5.44238H89.2378L89.4741 5.44824L89.7017 5.46582C89.9126 5.48705 90.1185 5.52386 90.3188 5.57324C90.4278 5.6001 90.5348 5.63128 90.6401 5.66602C90.8529 5.73614 91.058 5.82154 91.2544 5.92188C91.3212 5.95603 91.3869 5.99184 91.4517 6.0293C91.988 6.33959 92.4509 6.76083 92.812 7.26562C92.9319 7.43332 93.0407 7.60999 93.1372 7.79492C93.1687 7.85531 93.1992 7.91643 93.228 7.97852C93.2585 8.04403 93.2875 8.11042 93.3149 8.17773C93.4789 8.58012 93.5881 9.01378 93.6333 9.46973C93.6413 9.5501 93.6469 9.63119 93.6509 9.71289C93.6544 9.78661 93.6565 9.86083 93.6567 9.93555V11.5107C93.8326 11.5026 94.0092 11.498 94.1851 11.498H102.139C102.389 11.498 102.637 11.5061 102.883 11.5244C102.901 11.5258 102.919 11.5279 102.937 11.5293C103.164 11.5475 103.39 11.573 103.613 11.6064C103.752 11.6273 103.89 11.6511 104.028 11.6777C105.378 11.9398 106.636 12.4816 107.68 13.2637C108.005 13.5085 108.303 13.7726 108.578 14.0527C109.279 12.5288 110.782 11.498 112.568 11.498H121.46C122.607 11.4981 123.636 11.9242 124.413 12.6309C124.49 12.7014 124.565 12.7746 124.637 12.8506C124.948 13.1774 125.211 13.5518 125.413 13.9658C126.129 12.4882 127.614 11.498 129.365 11.498H138.257C138.629 11.498 138.989 11.5424 139.333 11.627C139.366 11.6353 139.4 11.6442 139.433 11.6533C139.581 11.6937 139.726 11.7419 139.868 11.7969C139.93 11.8211 139.992 11.8461 140.052 11.873C140.141 11.9123 140.228 11.9542 140.313 11.999C140.398 12.0437 140.482 12.0906 140.563 12.1406C141.073 12.4535 141.51 12.8701 141.854 13.3623C141.96 13.5141 142.058 13.6723 142.145 13.8379C142.376 14.2779 142.537 14.7641 142.616 15.2822C142.651 15.5164 142.67 15.757 142.67 16.0029V68.5254C142.67 69.3879 142.495 70.2096 142.173 70.9668C142.081 71.1832 141.977 71.3942 141.862 71.5996C141.747 71.8047 141.62 72.0043 141.483 72.1973C141.414 72.294 141.342 72.3889 141.268 72.4824C140.38 73.6025 139.117 74.4844 137.62 75.0107C137.495 75.0546 137.369 75.0959 137.241 75.1348C136.985 75.2125 136.722 75.28 136.455 75.3369C136.321 75.3653 136.186 75.3911 136.049 75.4141C135.503 75.5061 134.936 75.5547 134.353 75.5547H111.403L110.88 75.0215C109.868 75.3698 108.78 75.5547 107.674 75.5547H99.7192C99.1166 75.5547 98.5217 75.4976 97.9429 75.3916C97.8907 75.382 97.8385 75.3727 97.7866 75.3623C97.2125 75.2474 96.6553 75.083 96.1245 74.8711V75.5547H84.2495C83.8759 75.5547 83.5051 75.5331 83.1392 75.4922C83.1134 75.4893 83.0877 75.4855 83.062 75.4824C82.3564 75.3978 81.6704 75.238 81.019 75.0088C80.7581 74.917 80.5021 74.816 80.2534 74.7021C79.7021 74.4498 79.184 74.1434 78.7095 73.7881C78.4963 73.6303 78.2961 73.462 78.1069 73.2852C77.3554 74.6485 75.9321 75.5547 74.2612 75.5547H65.3687C65.2135 75.5547 65.0603 75.5465 64.9097 75.5312C64.7444 75.5145 64.5823 75.4883 64.4233 75.4541C64.2935 75.4261 64.1656 75.3935 64.0405 75.3545C63.9696 75.3324 63.8998 75.3078 63.8306 75.2822C63.217 75.0557 62.6709 74.6965 62.2241 74.2373C61.8045 74.5956 61.3208 74.8927 60.7886 75.1133C60.4842 75.2394 60.164 75.3405 59.8306 75.4141C59.4141 75.5059 58.977 75.5547 58.5249 75.5547H44.6987C43.8593 75.5546 43.071 75.3839 42.3716 75.0771C42.2939 75.0431 42.2175 75.0071 42.1421 74.9697C41.7173 74.7593 41.3296 74.4966 40.9868 74.1914C40.8424 74.0628 40.7052 73.9275 40.5776 73.7842C40.3624 73.5424 40.1722 73.2806 40.0103 73.002C39.6057 72.3057 39.3775 71.5037 39.3774 70.6436V68.5879L38.106 70.7627L37.2534 72.2236H31.9849L31.1323 70.7627L29.8608 68.5879V70.6426C29.8608 73.3502 27.4727 75.5547 24.5386 75.5547H10.7134C9.58109 75.5547 8.54041 75.2511 7.68213 74.7266C7.61055 74.6828 7.54019 74.6376 7.47119 74.5908C7.25741 74.4459 7.05651 74.2864 6.86963 74.1143C6.51416 73.7868 6.20999 73.4129 5.96826 73.002C5.80156 72.7187 5.66506 72.4177 5.56104 72.1025C5.51034 71.9489 5.46765 71.7919 5.43311 71.6318C5.36426 71.3131 5.32764 70.9824 5.32764 70.6426V44.1543C5.32765 43.447 5.49734 42.7753 5.80127 42.1689C6.10541 41.5624 6.54449 41.0212 7.08154 40.5762C6.88046 40.4071 6.69273 40.2221 6.521 40.0225C5.98336 39.3975 5.60079 38.632 5.4292 37.7881C5.36363 37.4654 5.32767 37.1314 5.32764 36.7891V10.3027C5.32775 7.62242 7.48664 5.44238 10.1382 5.44238H36.3735Z" fill="#DA659D"/>
<path d="M43.2592 33.6663C43.2086 36.442 40.2451 38.7115 36.5382 38.7115H10.3046C9.2679 38.7115 8.42578 37.8543 8.42578 36.793V10.3073C8.42578 9.29774 9.26524 8.44055 10.3046 8.44055H36.5409C40.2478 8.44055 43.2619 10.7101 43.2619 13.4857V19.4397C43.2619 21.7092 41.7801 23.576 39.9014 23.576C41.7801 23.576 43.2619 25.4428 43.2619 27.7123V33.6663H43.2592ZM29.0791 26.9585C29.0791 26.1503 27.8452 25.4945 26.4114 25.4945H24.6819V21.6603H26.4114C27.8452 21.6603 29.0791 21.0044 29.0791 20.1962V14.3429C29.0791 13.4857 27.8452 12.8299 26.4114 12.8299H22.8031V34.2731H26.4114C27.8452 34.2731 29.0791 33.6173 29.0791 32.8091V26.9558V26.9585Z" fill="white"/>
<path d="M75.4727 34.6752C75.4727 36.8958 73.053 38.7108 70.0869 38.7108H52.1998C49.2364 38.7108 46.814 36.8958 46.814 34.6752V30.1335C46.814 27.3579 49.828 25.0884 53.5349 25.0884H63.6137V20.9004C63.6137 19.2867 62.5264 18.0241 61.1433 18.0241C59.7602 18.0241 58.6729 19.2867 58.6729 20.9004V21.0528C58.6729 21.91 58.0307 22.5658 57.1912 22.5658H48.9406C48.1011 22.5658 47.4589 21.91 47.4589 21.0528V18.5302C47.4589 16.3097 49.8307 14.4946 52.7941 14.4946H70.0869C73.0503 14.4946 75.4727 16.3124 75.4727 18.5302V34.6752ZM63.6164 31.6492V28.1171H58.6756V32.3051C58.6756 33.9187 59.7629 35.1814 61.146 35.1814C62.5291 35.1814 63.6164 33.9187 63.6164 32.3051V31.6492Z" fill="white"/>
<path d="M107.689 34.6759C107.689 36.8964 105.27 38.7115 102.303 38.7115H94.3486C92.8669 38.7115 91.5318 38.257 90.5431 37.5522L89.4078 38.7115H80.5149C79.6755 38.7115 79.0332 38.0556 79.0332 37.1985V9.95355C79.0332 9.09637 79.6755 8.44055 80.5149 8.44055H89.4078C90.2473 8.44055 90.8895 9.09637 90.8895 9.95355V15.4532C91.8276 14.849 93.0135 14.4953 94.3486 14.4953H102.303C105.267 14.4953 107.689 16.3131 107.689 18.5309V34.6759ZM95.8303 20.9038C95.8303 19.2901 94.743 18.0274 93.3599 18.0274C91.9768 18.0274 90.8895 19.2901 90.8895 20.9038V32.3057C90.8895 33.9194 91.9768 35.182 93.3599 35.182C94.743 35.182 95.8303 33.9194 95.8303 32.3057V20.9038Z" fill="white"/>
<path d="M61.1463 70.6511C61.1463 71.7097 60.0483 72.5696 58.6919 72.5696H44.8662C43.5097 72.5696 42.4757 71.7124 42.4757 70.6511V57.7362L35.7574 69.2388H33.82L27.1017 57.7362V70.6511C27.1017 71.7097 26.0038 72.5696 24.7113 72.5696H10.8856C9.52911 72.5696 8.43115 71.7124 8.43115 70.6511V44.1627C8.43115 43.1531 9.52911 42.296 10.8856 42.296H24.7113C25.7453 42.296 26.5847 42.8511 26.9738 43.5559L34.7901 56.9253L42.6063 43.5559C42.9927 42.8484 43.8349 42.296 44.8689 42.296H58.6946C60.051 42.296 61.149 43.1531 61.149 44.1627V70.6511H61.1463Z" fill="white"/>
<path d="M75.9095 45.1723C75.9095 46.0295 75.2673 46.6853 74.4278 46.6853H65.5349C64.6955 46.6853 64.0532 46.0295 64.0532 45.1723V43.809C64.0532 42.9518 64.6955 42.296 65.5349 42.296H74.4278C75.2673 42.296 75.9095 42.9518 75.9095 43.809V45.1723ZM75.9095 71.0539C75.9095 71.9111 75.2673 72.5669 74.4278 72.5669H65.5349C64.6955 72.5669 64.0532 71.9111 64.0532 71.0539V49.8637C64.0532 49.0065 64.6955 48.3507 65.5349 48.3507H74.4278C75.2673 48.3507 75.9095 49.0065 75.9095 49.8637V71.0539Z" fill="white"/>
<path d="M93.3596 72.5683H84.4161C81.4527 72.5683 79.0303 70.7532 79.0303 68.5327V43.8104C79.0303 42.9532 79.6725 42.2974 80.512 42.2974H89.4049C90.2443 42.2974 90.8866 42.9532 90.8866 43.8104V66.1625C90.8866 67.7762 91.9739 69.0389 93.357 69.0389V72.571L93.3596 72.5683Z" fill="white"/>
<path d="M138.422 14.4946H129.529C128.689 14.4946 128.047 15.1504 128.047 16.0076V30.792C128.047 32.4057 126.96 33.6684 125.577 33.6684C124.194 33.6684 123.106 32.4057 123.106 30.792V16.0076C123.106 15.1504 122.464 14.4946 121.625 14.4946H112.732C111.892 14.4946 111.25 15.1504 111.25 16.0076V34.6752C111.25 36.8958 113.67 38.7108 116.636 38.7108H128.05V67.7218C128.05 69.2865 126.962 70.5464 125.579 70.5464C124.375 70.5464 123.397 69.5913 123.162 68.3123V43.805C123.162 42.9478 122.52 42.2919 121.681 42.2919H112.788C111.948 42.2919 111.306 42.9478 111.306 43.805V66.1571C111.306 67.7708 110.219 69.0334 108.835 69.0334C107.452 69.0334 106.365 67.7708 106.365 66.1571V43.805C106.365 42.9478 105.723 42.2919 104.883 42.2919H95.9905C95.151 42.2919 94.5088 42.9478 94.5088 43.805V68.5273C94.5088 70.7478 96.9286 72.5629 99.8946 72.5629H107.849C109.331 72.5629 110.666 72.1084 111.655 71.4036L112.79 72.5629H134.525C137.489 72.5629 139.911 70.7968 139.911 68.5273V16.0076C139.911 15.1504 139.269 14.4946 138.43 14.4946H138.422Z" fill="white"/>
<path d="M89.3452 5.48768C91.821 5.48768 93.7584 7.46601 93.7584 9.99403V11.556C93.9342 11.5478 94.1101 11.5424 94.286 11.5424H102.241C104.293 11.5424 106.262 12.171 107.781 13.3085C108.106 13.5534 108.405 13.8173 108.679 14.0976C109.38 12.5737 110.883 11.5424 112.669 11.5424H121.562C123.315 11.5424 124.797 12.5357 125.514 14.0106C126.231 12.5329 127.715 11.5424 129.466 11.5424H138.359C140.834 11.5424 142.772 13.5207 142.772 16.0488V68.5711C142.772 72.5142 139.118 75.6001 134.455 75.6001H111.504L110.982 75.0667C109.969 75.415 108.882 75.6001 107.776 75.6001H99.8211C98.5632 75.6001 97.3374 75.3606 96.2261 74.917V75.6001H84.3511C82.2991 75.6001 80.3297 74.9715 78.8107 73.834C78.5975 73.6761 78.3977 73.5074 78.2084 73.3306C77.4569 74.6939 76.0339 75.6001 74.3629 75.6001H65.47C64.2282 75.6001 63.1196 75.0993 62.3254 74.283C61.366 75.1021 60.0735 75.6001 58.6265 75.6001H44.8008C41.816 75.6001 39.4789 73.4421 39.4789 70.6882V68.6337L38.2077 70.808L37.3549 72.2693H32.0864L31.2336 70.808L29.9624 68.6337V70.6882C29.9624 73.3959 27.5746 75.6001 24.6405 75.6001H10.8148C7.79545 75.6001 5.42898 73.4421 5.42898 70.6882V44.1998C5.42898 42.7848 6.10854 41.5113 7.18251 40.6214C6.11121 39.7207 5.42898 38.3574 5.42898 36.8335V10.3478C5.42898 7.66738 7.58758 5.48768 10.2392 5.48768H36.4755C38.8873 5.48768 41.1925 6.21969 42.962 7.55309C44.974 9.06337 46.1253 11.2431 46.1253 13.5262V14.2936C47.6229 12.6118 50.0001 11.5424 52.729 11.5424H70.0218C72.0738 11.5424 74.0431 12.171 75.5622 13.3085C75.7274 13.4309 75.882 13.5616 76.0339 13.6949V9.99403C76.0339 7.46601 77.9739 5.48768 80.447 5.48768H89.3399M89.3452 3.03857H80.4523C76.7481 3.03857 73.822 5.90947 73.6487 9.64027C72.4975 9.28107 71.2743 9.0933 70.0297 9.0933H52.737C51.0128 9.0933 49.3578 9.44434 47.8841 10.1002C47.2046 8.36129 46.0107 6.79659 44.393 5.5802C42.2131 3.94202 39.4043 3.03857 36.4835 3.03857H10.2419C6.26844 3.03857 3.0332 6.31765 3.0332 10.3478V36.8362C3.0332 38.1805 3.3903 39.4758 4.04854 40.6024C3.3903 41.6909 3.0332 42.929 3.0332 44.2026V70.691C3.0332 74.8191 6.45232 78.0519 10.8175 78.0519H24.6432C27.3401 78.0519 29.7199 76.7266 31.1003 74.7211H38.3037C39.6654 76.7403 42.0426 78.0519 44.8008 78.0519H58.6265C59.8977 78.0519 61.1289 77.7689 62.2268 77.2328C63.2075 77.7689 64.3135 78.0519 65.4674 78.0519H74.3603C75.9139 78.0519 77.393 77.5158 78.5735 76.5797C80.2818 77.5376 82.2885 78.0519 84.3511 78.0519H98.6245V77.9947C99.019 78.0328 99.4187 78.0519 99.8211 78.0519H107.776C108.618 78.0519 109.45 77.9675 110.262 77.7988L110.51 78.0519H134.455C140.464 78.0519 145.17 73.8884 145.17 68.5739V16.0488C145.17 12.1492 142.178 9.0933 138.359 9.0933H129.466C128.011 9.0933 126.638 9.54775 125.514 10.3587C124.386 9.54775 123.017 9.0933 121.562 9.0933H112.669C111.009 9.0933 109.468 9.67836 108.269 10.7097C106.507 9.66204 104.407 9.0933 102.244 9.0933H96.1062C95.6851 5.63462 92.8683 3.03857 89.3479 3.03857H89.3452Z" fill="white"/>
</g>
<defs>
<clipPath id="clip0_1787_933">
<rect width="148" height="81" fill="white"/>
</clipPath>
</defs>
</svg>
