<svg width="48" height="48" viewBox="0 0 48 48" fill="none" xmlns="http://www.w3.org/2000/svg">
<path d="M34 34C31.7909 34 30 35.7909 30 38C30 40.2091 31.7909 42 34 42C36.2091 42 38 40.2091 38 38C38 35.7909 36.2091 34 34 34ZM34 34H18.5879C17.6658 34 17.2039 34 16.8242 33.8359C16.4893 33.6912 16.1988 33.4582 15.9871 33.1611C15.7498 32.828 15.6544 32.3826 15.4655 31.501L10.543 8.5293C10.3497 7.62727 10.2517 7.17675 10.0117 6.83984C9.80003 6.5427 9.50954 6.30883 9.17463 6.1641C8.79491 6 8.33558 6 7.41307 6H6M12 12H37.7464C39.19 12 39.9111 12 40.3955 12.3007C40.8199 12.5641 41.1306 12.9772 41.2661 13.458C41.4207 14.0069 41.2221 14.6999 40.822 16.0869L38.0527 25.6869C37.8135 26.5162 37.6939 26.9301 37.4512 27.2378C37.237 27.5094 36.9544 27.722 36.6341 27.8525C36.2722 28 35.8422 28 34.9842 28H15.4609M16 42C13.7909 42 12 40.2091 12 38C12 35.7909 13.7909 34 16 34C18.2091 34 20 35.7909 20 38C20 40.2091 18.2091 42 16 42Z" stroke="white" stroke-width="2" stroke-linecap="round" stroke-linejoin="round"/>
</svg>
